<?xml version="1.0" encoding="utf-8"?>
<!-- Designed by Vexels.com - 2019 All Rights Reserved - https://vexels.com/terms-and-conditions/  -->
<svg version="1.1" id="Layer_1" xmlns="http://www.w3.org/2000/svg" xmlns:xlink="http://www.w3.org/1999/xlink" x="0px" y="0px"
	 viewBox="0 0 1200 1200" enable-background="new 0 0 1200 1200" xml:space="preserve">
<path d="M494.373,841.301c-0.02,4.736-0.068,9.471-0.109,14.207c-6.959-0.302-13.934-0.362-20.684-0.696
	c-19.961-0.987-39.932-1.615-59.917-1.733c-25.037-0.147-49.994-0.281-75.028,0.351c-6.989,0.176-14.63,0.089-22.112,0.637
	c-0.656-6.167-1.176-12.351-1.708-18.536c-0.734-8.527-0.894-18.14-5.394-25.643c-3.009-5.015-16.019-11.875-18.969-2.679
	c-6.707,20.911-3.326,44.549-3.497,66.236c-0.081,10.3,7.572,19.954,18.794,17.104c-2.048,7.639-2.677,15.943-3.105,23.317
	c-0.652,11.229-0.045,22.691,3.271,33.496c7.591,24.734,26.152,40.847,51.547,45.128c27.786,4.684,56.264,6.761,84.422,6.866
	c10.43,0.039,22.227-0.165,31.886-4.743c9.322-4.418,20.924-17.476,16.318-28.047c-2.303-5.286-8.334-10.19-13.942-5.982
	c-0.906,0.729-1.859,1.386-2.817,2.037c-7.966,1.051-15.525,3.041-23.711,3.682c-8.256,0.646-16.574,0.795-24.854,0.932
	c-13.764,0.228-27.538,0.016-41.28-0.853c-9.38-0.592-19.83-0.744-28.692-4.305c-14.585-5.86-21.845-21.148-23.999-35.938
	c-1.799-12.353,1.719-25.013,0.892-36.792c4.384-0.027,8.768-0.001,13.149,0.083c22.741,0.438,45.497,1.046,68.215,2.153
	c32.271,1.573,67.084-0.359,98.866,6.224c10.149,2.102,20.725-7.429,20.976-17.446c0.575-22.963,4.237-53.144-4.457-74.364
	c-5.13-12.521-23.61-12.268-29.547-0.725C492.93,816.85,494.428,828.603,494.373,841.301z M439.545,554.736
	c-12.373,16.061-30.537,43.003-51.486,47.893c-8.597,2.007-3.193,15.64,3.94,15.862c24.383,0.756,40.478-17.414,56.097-33.885
	c19.514-20.578,39.86-44.469,50.6-70.983c1.508-3.722-0.391-9.151-3.728-11.286c-1.054-0.674-2.108-1.349-3.163-2.024
	c-3.761-2.406-8.53-1.71-11.929,0.77c-10.133,7.394-15.804,19.622-22.773,29.813C451.527,539.049,445.571,546.913,439.545,554.736z
	 M349.719,559.859c-9.057,3.631,0.245,17.82,8.019,16.182c30.344-6.393,49.535-37.816,66.955-61.172
	c9.186-12.316,18.183-24.843,26.583-37.711c7.315-11.206,21.282-27.053,18.257-41.063c-1.278-5.916-9.449-9.553-14.242-5.691
	c-10.394,8.376-16.798,21.193-24.21,32.139c-6.746,9.962-13.361,19.995-20.352,29.79c-6.905,9.675-14.057,19.163-21.279,28.601
	C378.402,535.374,367.328,552.8,349.719,559.859z M1031.377,477.404c-2.19-9.958-4.907-19.805-7.921-29.544
	c-5.873-18.979-13.238-37.271-22.182-55.018c-18.083-35.881-43.1-64.754-69.858-94.272c-7.522-8.299-21.938-1.445-13.614,8.415
	c24.215,28.683,42.088,64.515,57.371,98.632c14.651,32.703,25.573,67.09,33.661,101.974c3.044,13.131,27.52,8.142,26.615-4.68
	c-0.385-3.226-1.148-9.712-1.307-10.783C1033.411,487.183,1032.45,482.285,1031.377,477.404z M1035.43,502.5
	c0.016,0.14,0.011,0.273,0.021,0.411C1035.707,505.048,1035.795,505.757,1035.43,502.5z M1147.208,586.252
	c-6.09-100.857-35.498-198.403-85.394-286.254c-27.256-47.989-60.372-92.944-97.864-133.433
	c-18.421-19.892-37.997-38.783-58.404-56.63c-23.95-20.944-49.86-42.794-78.85-56.158c-4.388-2.023-9.184-1.299-13.255,0.967
	C743.82,70.384,671.954,74.052,600.788,72.011c-36.645-1.051-73.239-3.604-109.716-7.242c-18.485-1.844-36.943-3.968-55.368-6.335
	c-18.744-2.408-39.372-7.434-58.168-4.363c-0.263,0.033-0.53,0.072-0.8,0.119c-0.011,0.002-0.022,0.003-0.034,0.005
	c-0.012,0.002-0.025,0.007-0.038,0.009c-1.365,0.241-2.801,0.647-4.317,1.271c-26.359,10.854-49.398,29.497-71.123,47.759
	c-18.374,15.446-35.939,31.883-52.68,49.083c-34.991,35.95-66.404,75.53-93.338,117.861
	c-51.174,80.427-86.329,172.217-98.213,266.984c-7.556,60.252-7.279,121.43-6.774,182.057c0.311,37.333,1.367,74.674,3.653,111.94
	c1.798,29.304,1.427,61.262,13.358,88.608c6.305,14.451,15.488,25.4,26.513,33.65c-3.519,24.565-2.471,51.43-0.038,75.303
	c3.163,31.031,36.748,40.092,63.341,42.007c19.544,1.407,45.52,3.51,60.025-9.671c0.621,2.733,1.363,5.433,2.267,8.087
	c13.992,41.094,62.622,58.017,101.394,64.592c47.705,8.089,97.464,8.872,145.729,10.875c23.626,0.98,47.274,1.4,70.916,1.814
	c20.797,0.364,42.174,1.646,63.088,0.365c24.877,1.482,50.368-0.102,75.152-0.507c23.072-0.377,46.151-0.886,69.194-2.144
	c48.393-2.642,98.104-2.728,145.744-12.4c34.635-7.031,73.112-24.1,87.994-58.532c1.809-4.185,3.172-8.569,4.197-13.083
	c14.672,13.966,40.68,11.802,60.071,10.683c24.202-1.396,55.571-8.588,62.047-35.6c3.116-12.998,2.161-27.629,2.266-40.975
	c0.096-12.222,1.607-27.275-0.049-40.781c4.646-3.555,8.976-7.549,12.849-12.08c18.067-21.138,21.361-48.053,23.628-74.737
	c2.596-30.564,4.168-61.213,5.04-91.872C1150.381,712.076,1150.989,648.874,1147.208,586.252z M413.216,122.76
	c18.043,16.156,37.867,31.062,58.953,43.028c24.57,13.943,53.01,25.137,82.015,30.236c-47.604,29.292-97.677,52.832-149.493,74.001
	c-4.554-27.503-8.016-55.215-10.673-82.933c-1.795-18.729-3.546-37.5-4.808-56.27c-0.812-12.081-1.253-24.384-2.859-36.463
	C394.432,104.593,403.513,114.071,413.216,122.76z M191.286,1029.755c0.259-0.427,0.518-0.854,0.777-1.282
	C192.088,1028.443,192.477,1029.406,191.286,1029.755z M188.927,1029.826c-6.063-0.333-12.394,0.92-18.493,0.955
	c-5.623,0.033-11.27-0.164-16.864-0.757c-5.973-0.633-23.777-2.455-26.835-6.143c-0.722-0.871-0.738-11.033-0.968-14.123
	c-0.605-8.145-1.069-16.276-1.391-24.439c-0.213-5.427-0.139-11.016-0.144-16.63c21.71,6.902,46.125,8.293,69.032,7.323
	C193.489,993.951,193.124,1013.032,188.927,1029.826z M592.039,271.84c-0.411,75.31-0.821,150.621-1.232,225.931
	c-0.497,91.145-0.995,182.29-1.492,273.435c-0.43,78.857-0.86,157.715-1.291,236.572c-0.142,26.032-0.284,52.064-0.426,78.096
	c-0.03,5.418-0.27,10.949-0.444,16.489c-20.191-0.405-40.657,0.696-60.607,0.45c-20.068-0.248-40.128-0.792-60.192-1.236
	c-41.06-0.909-82.36-1.422-123.291-5.095c-28.238-2.534-69.877-7.844-88.128-32.787c-12.986-17.747-9.019-47.811-9.53-68.51
	c-0.288-11.661,0.038-23.589-0.119-35.464c6.682-9.052,7.331-20.31,7.552-31.841c0.586-30.558-1.518-61.139-3.502-91.614
	c-4.258-65.413-5.46-130.132,4.673-195.116c9.858-63.22,27.765-125.094,53.605-183.631c4.462-10.109,2.003-22.171-7.874-28.206
	c-8.583-5.245-22.606-3.351-27.075,6.772c-42.586,96.474-65.856,200.585-67.033,306.12c-0.61,54.714,6.19,109.124,6.969,163.792
	c0.093,6.516,0.103,13.033,0.005,19.549c-0.031,2.056,0.513,4.967,0.222,7.299c-11.752,1.787-24.019,2.208-35.908,2.414
	c-22.541,0.391-48.193-2.26-65.115-18.96c-7.334-7.238-10.786-15.999-12.964-25.925c-1.712-7.805-2.485-15.808-3.256-23.742
	c-2.665-27.426-4.377-55.035-5.57-82.577c-1.188-27.429-1.79-54.88-2.022-82.332c-0.448-53.075-1.285-106.822,5.839-159.531
	c11.63-86.048,42.591-168.323,87.923-242.216c25.84-42.12,56.175-81.322,90.353-117.008c17.21-17.969,35.384-34.914,54.288-51.085
	c9.659-8.263,19.698-16.106,29.59-24.107c-1.432,27.385,0.436,55.14,2.376,82.292c2.615,36.6,7.048,72.877,10.837,109.349
	c1.332,12.821,14.037,23.35,27.062,19.16c69.284-22.286,135.043-56.194,196.042-95.935
	C592.219,239.04,592.129,255.44,592.039,271.84z M494.146,135.217c-21.601-10.804-41.767-24.034-60.151-39.681
	c-4.263-3.628-8.38-7.559-12.529-11.454c0.735,0.089,1.475,0.176,2.186,0.27c18.464,2.45,36.96,4.664,55.486,6.6
	c38.816,4.057,77.771,6.916,116.785,8.066c61.724,1.819,124.027-0.254,185.013-10.491
	C736.754,130.137,597.783,187.052,494.146,135.217z M806.922,95.051c-3.922,29.781-5.137,59.977-8.127,89.845
	c-2.864,28.616-6.112,57.423-11.084,85.817c-29.177-11.658-58.139-23.498-86.227-37.856c-27.245-13.928-53.63-29.531-79.214-46.319
	c0.019-0.05,0.034-0.102,0.053-0.153C692.257,176.915,757.194,144.862,806.922,95.051z M1074.449,1005.203
	c-0.25,4.182,0.618,12.504-1.353,16.454c-1.733,3.472-7.41,4.143-11.035,5.111c-7.994,2.135-16.146,3.344-24.409,3.806
	c-8.078,0.452-16.2,0.046-24.267-0.473l-2.705-0.182c-0.382-2.857-0.966-6.465-1.019-6.969c-1.671-15.641-2.648-31.278-2.866-46.972
	c14.055,0.91,28.113,1.241,42.131-0.499c8.967-1.113,17.979-3.036,26.675-5.87C1075.15,981.494,1075.152,993.436,1074.449,1005.203z
	 M1111.794,696.759c-0.342,58.616-2.41,117.552-8.51,175.876c-2.482,23.731-9.521,43.229-32.26,54.177
	c-23.78,11.449-52.264,9.083-77.772,6.991c-0.188-0.016-3.308-0.431-5.955-0.814c-0.005-0.102-0.01-0.205-0.014-0.307
	c0.628-2.281-0.159-6.985-0.187-9.605c-0.168-15.247,0.26-30.49,0.982-45.718c1.339-28.224,3.646-56.391,4.996-84.615
	c5.853-122.36-16.913-243.592-66.37-355.632c-4.346-9.846-18.368-13.47-27.343-8.386c-10.42,5.903-11.215,17.907-6.864,27.764
	c47.322,107.204,66.313,223.607,60.272,340.331c-1.589,30.712-4.182,61.367-5.326,92.103c-0.774,20.81-5.744,51.407,7.434,69.84
	c-0.288,11.935-0.19,23.897-0.43,35.771c-0.371,18.281,0.883,38.483-3.417,56.323c-4.208,17.46-20.363,26.163-35.828,32.526
	c-18.964,7.803-39.082,11.082-59.382,12.982c-80.844,7.566-162.266,4.731-243.344,6.269c0.131-23.961,0.262-47.923,0.392-71.884
	c0.411-75.31,0.822-150.621,1.232-225.931c0.497-91.145,0.995-182.29,1.492-273.435c0.43-78.857,0.86-157.715,1.291-236.572
	c0.113-20.742,0.226-41.484,0.339-62.226c57.269,35.621,118.532,65.088,182.478,86.357c9.956,3.311,22.586-5.374,23.564-15.64
	c3.602-37.811,8.832-75.374,11.207-113.322c1.04-16.617,1.924-33.268,2.204-49.916c0.207-12.304,0.76-24.896,0.181-37.359
	c29.86,24.307,60.14,47.799,87.196,75.721c31.76,32.776,60.458,68.403,85.253,106.727c48.227,74.543,82.142,158.356,95.357,246.364
	C1112.85,586.061,1112.116,641.753,1111.794,696.759z M810.876,569.156c4.168,16.444,7.456,33.069,10.664,49.72
	c1.745,9.057,2.918,18.269,4.769,27.29c2.213,10.782,5.094,16.008,12.292,24.63c2.018,2.417,7.602,4.619,9.831,1.086
	c10.192-16.155,5.516-36.509,3.023-54.456c-2.371-17.065-5.49-34.022-9.72-50.73c-4.183-16.523-9.084-33.127-15.649-48.866
	c-9.426-22.597-21.429-41.414-37.818-59.6c-6.434-7.139-19.221-4.149-14.915,6.774C786.922,499.425,801.746,533.133,810.876,569.156
	z M883.172,841.301c-0.02,4.736-0.068,9.471-0.11,14.207c-6.959-0.302-13.934-0.362-20.684-0.696
	c-19.961-0.987-39.932-1.615-59.918-1.733c-25.037-0.147-49.994-0.281-75.028,0.351c-6.99,0.176-14.63,0.089-22.112,0.637
	c-0.656-6.167-1.176-12.351-1.708-18.536c-0.734-8.527-0.894-18.14-5.394-25.643c-3.009-5.015-16.019-11.875-18.969-2.679
	c-6.707,20.911-3.326,44.549-3.497,66.236c-0.082,10.324,7.606,20.006,18.872,17.089c0.01-0.003,0.017-0.005,0.027-0.007
	c-4.172,20.657,1.579,46.01,10.716,62.25c14.24,25.311,41.394,32.562,68.56,35.143c15.243,1.448,30.551,1.395,45.847,1.465
	c14.906,0.067,30.653,1.6,45.453-0.565c27.356-4.001,45.279-33.082,34.376-58.907c-2.588-6.13-16.457-10.724-19.208-2.224
	c-3.06,9.457-3.316,28.63-14.481,31.417c-8.853,2.21-20.428,0.456-29.586,0.53c-20.881,0.17-42.173,1.443-62.955-1.059
	c-17.776-2.141-35.22-6.753-43.877-23.891c-7.229-14.31-7.347-29.851-5.994-45.319c3.376,0,6.753-0.001,10.127,0.064
	c22.741,0.438,45.497,1.046,68.215,2.153c32.271,1.573,67.084-0.359,98.866,6.224c10.148,2.102,20.725-7.429,20.976-17.446
	c0.575-22.963,4.237-53.144-4.457-74.364c-5.13-12.521-23.61-12.268-29.548-0.725C881.729,816.85,883.226,828.603,883.172,841.301z
	 M751.969,594.237c2.295,12.786,2.225,22.151,13.469,29.711c3.483,2.342,11.685,2.204,13.336-2.606
	c7.582-22.079-3.713-50.873-9.709-72.697c-3.732-13.582-28.955-11.019-25.748,3.176C746.498,565.899,749.419,580.03,751.969,594.237
	z"/>
</svg>
